<svg version="1" xmlns="http://www.w3.org/2000/svg" width="170.667" height="170.667" viewBox="0 0 128.000000 128.000000"><path d="M47.5 2.4C35.7 5.6 27.6 10.3 19 19 11.1 27 6.4 34.6 2.9 45.2.1 53.5-.5 69 1.6 78c1.8 8 8.2 21.2 12.7 26.5 3.3 3.7 3.6 3.9 6 2.6 7.5-4 15.7-17.2 18.3-29.3 1-4.7 5.2-31.6 6.4-40.8 1.5-11.6 1.6-12 3.4-18.5C51.5 8.1 57.8 2.4 65.3 3.4c11 1.3 15.5 11.1 19.1 41.6 1.7 14.5 3.4 24.3 6.4 36.2 2.6 10.3 10.3 22.3 16.5 25.4 2.9 1.6 3 1.5 6.3-2.3 8.3-9.5 14-25.2 14.3-39.7.6-29.3-20.7-56.2-50-63.2C76.6 1 71 .6 65.5.5c-8-.3-11.6.1-18 1.9z"/><path d="M62.1 17.9c-1.3 2.4-3.7 12.8-4.5 19.6-.4 2.7-.8 6.1-1.1 7.5-.2 1.4-.7 5.2-1 8.5-2.5 26.4-9.8 46.9-20.5 57.6-3.3 3.4-6 6.3-6 6.5 0 1 14.5 7.2 20 8.6 8.1 2.1 21.8 2 30.5-.2 6.8-1.7 19.5-7.3 19.5-8.6 0-.3-2.4-2.9-5.3-5.7C82.5 100.7 76.2 83 72.5 52c-.9-7.6-1.5-12.4-2-15-.2-1.4-.7-4.5-1-6.9-.8-5.6-3.7-13.3-5.2-13.8-.6-.2-1.6.5-2.2 1.6z"/></svg>